<?xml version="1.0" encoding="UTF-8"?>
<!DOCTYPE svg PUBLIC "-//W3C//DTD SVG 1.1//EN" "http://www.w3.org/Graphics/SVG/1.1/DTD/svg11.dtd">
<svg version="1.1" xmlns="http://www.w3.org/2000/svg" xmlns:xlink="http://www.w3.org/1999/xlink" x="0" y="0" 
  width="18.523" height="12.13" transform="rotate(90deg)" viewBox="0, 0, 18.523, 12.13">
  <g id="mosca" transform="translate(0.023, -0.37) rotate(90deg)">
    <g>
      <path d="M10.306,8.834 C8.111,8.834 6.598,8.084 6.598,6.88 C6.598,5.675 8.111,4.473 10.306,4.473 C12.5,4.473 18,5.449 18,6.653 C18,7.858 12.5,8.834 10.306,8.834 z" fill="#743B3B"/>
      <path d="M10.306,8.834 C8.111,8.834 6.598,8.084 6.598,6.88 C6.598,5.675 8.111,4.473 10.306,4.473 C12.5,4.473 18,5.449 18,6.653 C18,7.858 12.5,8.834 10.306,8.834 z" fill-opacity="0" stroke="#000000" stroke-width="1"/>
    </g>
    <g>
      <path d="M4.417,9.614 C2.793,9.614 1.477,8.39 1.477,6.88 C1.477,5.37 2.793,4.145 4.417,4.145 C6.04,4.145 7.356,5.37 7.356,6.88 C7.356,8.39 6.04,9.614 4.417,9.614 z" fill="#743B3B"/>
      <path d="M4.417,9.614 C2.793,9.614 1.477,8.39 1.477,6.88 C1.477,5.37 2.793,4.145 4.417,4.145 C6.04,4.145 7.356,5.37 7.356,6.88 C7.356,8.39 6.04,9.614 4.417,9.614 z" fill-opacity="0" stroke="#000000" stroke-width="1"/>
    </g>
    <g>
      <g>
        <path d="M13.456,6.432 C11.079,7.072 8.937,6.796 8.672,5.814 C8.408,4.832 10.121,3.516 12.498,2.876 C14.876,2.235 17.017,2.512 17.282,3.494 C17.547,4.476 15.834,5.791 13.456,6.432 z" fill="#FFFFFF"/>
        <path d="M13.456,6.432 C11.079,7.072 8.937,6.796 8.672,5.814 C8.408,4.832 10.121,3.516 12.498,2.876 C14.876,2.235 17.017,2.512 17.282,3.494 C17.547,4.476 15.834,5.791 13.456,6.432 z" fill-opacity="0" stroke="#000000" stroke-width="1"/>
      </g>
      <g>
        <path d="M11.46,5.771 C9.083,6.411 6.941,6.135 6.676,5.153 C6.412,4.171 8.124,2.855 10.502,2.215 C12.879,1.574 15.021,1.851 15.286,2.833 C15.55,3.815 13.838,5.13 11.46,5.771 z" fill="#FFFFFF"/>
        <path d="M11.46,5.771 C9.083,6.411 6.941,6.135 6.676,5.153 C6.412,4.171 8.124,2.855 10.502,2.215 C12.879,1.574 15.021,1.851 15.286,2.833 C15.55,3.815 13.838,5.13 11.46,5.771 z" fill-opacity="0" stroke="#000000" stroke-width="1"/>
      </g>
    </g>
    <g>
      <g>
        <path d="M10.554,11.655 C12.931,12.295 15.073,12.019 15.338,11.037 C15.602,10.055 13.89,8.739 11.512,8.099 C9.135,7.458 6.993,7.735 6.728,8.717 C6.464,9.699 8.176,11.014 10.554,11.655 z" fill="#FFFFFF"/>
        <path d="M10.554,11.655 C12.931,12.295 15.073,12.019 15.338,11.037 C15.602,10.055 13.89,8.739 11.512,8.099 C9.135,7.458 6.993,7.735 6.728,8.717 C6.464,9.699 8.176,11.014 10.554,11.655 z" fill-opacity="0" stroke="#000000" stroke-width="1"/>
      </g>
      <g>
        <path d="M12.55,10.994 C14.928,11.634 17.069,11.358 17.334,10.376 C17.599,9.394 15.886,8.078 13.508,7.438 C11.131,6.797 8.989,7.074 8.724,8.056 C8.46,9.038 10.173,10.353 12.55,10.994 z" fill="#FFFFFF"/>
        <path d="M12.55,10.994 C14.928,11.634 17.069,11.358 17.334,10.376 C17.599,9.394 15.886,8.078 13.508,7.438 C11.131,6.797 8.989,7.074 8.724,8.056 C8.46,9.038 10.173,10.353 12.55,10.994 z" fill-opacity="0" stroke="#000000" stroke-width="1"/>
      </g>
    </g>
  </g>
</svg>
